<svg id="visual" viewBox="0 0 960 540" width="960" height="540" xmlns="http://www.w3.org/2000/svg" xmlns:xlink="http://www.w3.org/1999/xlink" version="1.1"><rect x="0" y="0" width="960" height="540" fill="#e5f1e8"></rect><defs><linearGradient id="grad1_0" x1="43.8%" y1="0%" x2="100%" y2="100%"><stop offset="14.444444444444446%" stop-color="#85bc94" stop-opacity="1"></stop><stop offset="85.55555555555554%" stop-color="#85bc94" stop-opacity="1"></stop></linearGradient></defs><defs><linearGradient id="grad1_1" x1="43.8%" y1="0%" x2="100%" y2="100%"><stop offset="14.444444444444446%" stop-color="#85bc94" stop-opacity="1"></stop><stop offset="85.55555555555554%" stop-color="#b5d7bd" stop-opacity="1"></stop></linearGradient></defs><defs><linearGradient id="grad1_2" x1="43.8%" y1="0%" x2="100%" y2="100%"><stop offset="14.444444444444446%" stop-color="#e5f1e8" stop-opacity="1"></stop><stop offset="85.55555555555554%" stop-color="#b5d7bd" stop-opacity="1"></stop></linearGradient></defs><defs><linearGradient id="grad2_0" x1="0%" y1="0%" x2="56.3%" y2="100%"><stop offset="14.444444444444446%" stop-color="#85bc94" stop-opacity="1"></stop><stop offset="85.55555555555554%" stop-color="#85bc94" stop-opacity="1"></stop></linearGradient></defs><defs><linearGradient id="grad2_1" x1="0%" y1="0%" x2="56.3%" y2="100%"><stop offset="14.444444444444446%" stop-color="#b5d7bd" stop-opacity="1"></stop><stop offset="85.55555555555554%" stop-color="#85bc94" stop-opacity="1"></stop></linearGradient></defs><defs><linearGradient id="grad2_2" x1="0%" y1="0%" x2="56.3%" y2="100%"><stop offset="14.444444444444446%" stop-color="#b5d7bd" stop-opacity="1"></stop><stop offset="85.55555555555554%" stop-color="#e5f1e8" stop-opacity="1"></stop></linearGradient></defs><g transform="translate(960, 0)"><path d="M0 351C-34.8 309.3 -69.7 267.7 -101 243.9C-132.4 220.1 -160.3 214.3 -201.5 201.5C-242.7 188.8 -297.2 169.1 -324.3 134.3C-351.4 99.6 -351.2 49.8 -351 0L0 0Z" fill="#cde4d3"></path><path d="M0 234C-23.2 206.2 -46.4 178.4 -67.4 162.6C-88.3 146.8 -106.9 142.9 -134.4 134.4C-161.8 125.8 -198.1 112.7 -216.2 89.5C-234.3 66.4 -234.1 33.2 -234 0L0 0Z" fill="#9dc9a9"></path><path d="M0 117C-11.6 103.1 -23.2 89.2 -33.7 81.3C-44.1 73.4 -53.4 71.4 -67.2 67.2C-80.9 62.9 -99.1 56.4 -108.1 44.8C-117.1 33.2 -117.1 16.6 -117 0L0 0Z" fill="#85bc94"></path></g><g transform="translate(0, 540)"><path d="M0 -351C49.1 -349.7 98.2 -348.4 134.3 -324.3C170.4 -300.2 193.4 -253.4 216.4 -216.4C239.3 -179.4 262.1 -152.3 284.6 -117.9C307 -83.4 329 -41.7 351 0L0 0Z" fill="#cde4d3"></path><path d="M0 -234C32.7 -233.1 65.5 -232.2 89.5 -216.2C113.6 -200.1 129 -168.9 144.2 -144.2C159.5 -119.6 174.8 -101.5 189.7 -78.6C204.6 -55.6 219.3 -27.8 234 0L0 0Z" fill="#9dc9a9"></path><path d="M0 -117C16.4 -116.6 32.7 -116.1 44.8 -108.1C56.8 -100.1 64.5 -84.5 72.1 -72.1C79.8 -59.8 87.4 -50.8 94.9 -39.3C102.3 -27.8 109.7 -13.9 117 0L0 0Z" fill="#85bc94"></path></g></svg>