<svg width="421" height="166" viewBox="0 0 421 166" fill="none" xmlns="http://www.w3.org/2000/svg">
<path d="M210.5 0C177.434 0 150.5 26.934 150.5 60C150.5 93.066 177.434 120 210.5 120C243.566 120 270.5 93.066 270.5 60C270.5 26.934 243.566 0 210.5 0ZM210.5 12C237.081 12 258.5 33.4193 258.5 60C258.5 86.5807 237.081 108 210.5 108C183.919 108 162.5 86.5807 162.5 60C162.5 33.4193 183.919 12 210.5 12ZM204.5 30V54H180.5V66H204.5V90H216.5V66H240.5V54H216.5V30H204.5Z" fill="#7E7E7E"/>
<path d="M15.984 156H12.624L5.016 144.504V156H1.656V139.224H5.016L12.624 150.744V139.224H15.984V156ZM25.2084 156.216C23.9284 156.216 22.7764 155.936 21.7524 155.376C20.7284 154.8 19.9204 153.992 19.3284 152.952C18.7524 151.912 18.4644 150.712 18.4644 149.352C18.4644 147.992 18.7604 146.792 19.3524 145.752C19.9604 144.712 20.7844 143.912 21.8244 143.352C22.8644 142.776 24.0244 142.488 25.3044 142.488C26.5844 142.488 27.7444 142.776 28.7844 143.352C29.8244 143.912 30.6404 144.712 31.2324 145.752C31.8404 146.792 32.1444 147.992 32.1444 149.352C32.1444 150.712 31.8324 151.912 31.2084 152.952C30.6004 153.992 29.7684 154.8 28.7124 155.376C27.6724 155.936 26.5044 156.216 25.2084 156.216ZM25.2084 153.288C25.8164 153.288 26.3844 153.144 26.9124 152.856C27.4564 152.552 27.8884 152.104 28.2084 151.512C28.5284 150.92 28.6884 150.2 28.6884 149.352C28.6884 148.088 28.3524 147.12 27.6804 146.448C27.0244 145.76 26.2164 145.416 25.2564 145.416C24.2964 145.416 23.4884 145.76 22.8324 146.448C22.1924 147.12 21.8724 148.088 21.8724 149.352C21.8724 150.616 22.1844 151.592 22.8084 152.28C23.4484 152.952 24.2484 153.288 25.2084 153.288ZM45.4159 156.216C44.3279 156.216 43.3519 156.024 42.4879 155.64C41.6239 155.24 40.9359 154.704 40.4239 154.032C39.9279 153.36 39.6559 152.616 39.6079 151.8H42.9919C43.0559 152.312 43.3039 152.736 43.7359 153.072C44.1839 153.408 44.7359 153.576 45.3919 153.576C46.0319 153.576 46.5279 153.448 46.8799 153.192C47.2479 152.936 47.4319 152.608 47.4319 152.208C47.4319 151.776 47.2079 151.456 46.7599 151.248C46.3279 151.024 45.6319 150.784 44.6719 150.528C43.6799 150.288 42.8639 150.04 42.2239 149.784C41.5999 149.528 41.0559 149.136 40.5919 148.608C40.1439 148.08 39.9199 147.368 39.9199 146.472C39.9199 145.736 40.1279 145.064 40.5439 144.456C40.9759 143.848 41.5839 143.368 42.3679 143.016C43.1679 142.664 44.1039 142.488 45.1759 142.488C46.7599 142.488 48.0239 142.888 48.9679 143.688C49.9119 144.472 50.4319 145.536 50.5279 146.88H47.3119C47.2639 146.352 47.0399 145.936 46.6399 145.632C46.2559 145.312 45.7359 145.152 45.0799 145.152C44.4719 145.152 43.9999 145.264 43.6639 145.488C43.3439 145.712 43.1839 146.024 43.1839 146.424C43.1839 146.872 43.4079 147.216 43.8559 147.456C44.3039 147.68 44.9999 147.912 45.9439 148.152C46.9039 148.392 47.6959 148.64 48.3199 148.896C48.9439 149.152 49.4799 149.552 49.9279 150.096C50.3919 150.624 50.6319 151.328 50.6479 152.208C50.6479 152.976 50.4319 153.664 49.9999 154.272C49.5839 154.88 48.9759 155.36 48.1759 155.712C47.3919 156.048 46.4719 156.216 45.4159 156.216ZM57.318 145.464V151.896C57.318 152.344 57.422 152.672 57.63 152.88C57.854 153.072 58.222 153.168 58.734 153.168H60.294V156H58.182C55.35 156 53.934 154.624 53.934 151.872V145.464H52.35V142.704H53.934V139.416H57.318V142.704H60.294V145.464H57.318ZM61.8467 149.304C61.8467 147.96 62.1107 146.768 62.6387 145.728C63.1827 144.688 63.9107 143.888 64.8227 143.328C65.7507 142.768 66.7827 142.488 67.9187 142.488C68.9107 142.488 69.7747 142.688 70.5107 143.088C71.2627 143.488 71.8627 143.992 72.3107 144.6V142.704H75.6947V156H72.3107V154.056C71.8787 154.68 71.2787 155.2 70.5107 155.616C69.7587 156.016 68.8867 156.216 67.8947 156.216C66.7747 156.216 65.7507 155.928 64.8227 155.352C63.9107 154.776 63.1827 153.968 62.6387 152.928C62.1107 151.872 61.8467 150.664 61.8467 149.304ZM72.3107 149.352C72.3107 148.536 72.1507 147.84 71.8307 147.264C71.5107 146.672 71.0787 146.224 70.5347 145.92C69.9907 145.6 69.4067 145.44 68.7827 145.44C68.1587 145.44 67.5827 145.592 67.0547 145.896C66.5267 146.2 66.0947 146.648 65.7587 147.24C65.4387 147.816 65.2787 148.504 65.2787 149.304C65.2787 150.104 65.4387 150.808 65.7587 151.416C66.0947 152.008 66.5267 152.464 67.0547 152.784C67.5987 153.104 68.1747 153.264 68.7827 153.264C69.4067 153.264 69.9907 153.112 70.5347 152.808C71.0787 152.488 71.5107 152.04 71.8307 151.464C72.1507 150.872 72.3107 150.168 72.3107 149.352ZM78.1123 149.352C78.1123 147.976 78.3923 146.776 78.9523 145.752C79.5123 144.712 80.2883 143.912 81.2803 143.352C82.2723 142.776 83.4083 142.488 84.6883 142.488C86.3363 142.488 87.6963 142.904 88.7683 143.736C89.8563 144.552 90.5843 145.704 90.9523 147.192H87.3283C87.1363 146.616 86.8083 146.168 86.3443 145.848C85.8963 145.512 85.3363 145.344 84.6643 145.344C83.7043 145.344 82.9443 145.696 82.3843 146.4C81.8243 147.088 81.5443 148.072 81.5443 149.352C81.5443 150.616 81.8243 151.6 82.3843 152.304C82.9443 152.992 83.7043 153.336 84.6643 153.336C86.0243 153.336 86.9123 152.728 87.3283 151.512H90.9523C90.5843 152.952 89.8563 154.096 88.7683 154.944C87.6803 155.792 86.3203 156.216 84.6883 156.216C83.4083 156.216 82.2723 155.936 81.2803 155.376C80.2883 154.8 79.5123 154 78.9523 152.976C78.3923 151.936 78.1123 150.728 78.1123 149.352ZM101.286 156L96.7738 150.336V156H93.4138V138.24H96.7738V148.344L101.238 142.704H105.606L99.7498 149.376L105.654 156H101.286ZM112.517 156.216C111.429 156.216 110.453 156.024 109.589 155.64C108.725 155.24 108.037 154.704 107.525 154.032C107.029 153.36 106.757 152.616 106.709 151.8H110.093C110.157 152.312 110.405 152.736 110.837 153.072C111.285 153.408 111.837 153.576 112.493 153.576C113.133 153.576 113.629 153.448 113.981 153.192C114.349 152.936 114.533 152.608 114.533 152.208C114.533 151.776 114.309 151.456 113.861 151.248C113.429 151.024 112.733 150.784 111.773 150.528C110.781 150.288 109.965 150.04 109.325 149.784C108.701 149.528 108.157 149.136 107.693 148.608C107.245 148.08 107.021 147.368 107.021 146.472C107.021 145.736 107.229 145.064 107.645 144.456C108.077 143.848 108.685 143.368 109.469 143.016C110.269 142.664 111.205 142.488 112.277 142.488C113.861 142.488 115.125 142.888 116.069 143.688C117.013 144.472 117.533 145.536 117.629 146.88H114.413C114.365 146.352 114.141 145.936 113.741 145.632C113.357 145.312 112.837 145.152 112.181 145.152C111.573 145.152 111.101 145.264 110.765 145.488C110.445 145.712 110.285 146.024 110.285 146.424C110.285 146.872 110.509 147.216 110.957 147.456C111.405 147.68 112.101 147.912 113.045 148.152C114.005 148.392 114.797 148.64 115.421 148.896C116.045 149.152 116.581 149.552 117.029 150.096C117.493 150.624 117.733 151.328 117.749 152.208C117.749 152.976 117.533 153.664 117.101 154.272C116.685 154.88 116.077 155.36 115.277 155.712C114.493 156.048 113.573 156.216 112.517 156.216ZM129.898 152.472L127.09 159.216H124.93L126.49 152.472H129.898ZM137.175 149.352C137.175 147.976 137.455 146.776 138.015 145.752C138.575 144.712 139.351 143.912 140.343 143.352C141.335 142.776 142.471 142.488 143.751 142.488C145.399 142.488 146.759 142.904 147.831 143.736C148.919 144.552 149.647 145.704 150.015 147.192H146.391C146.199 146.616 145.871 146.168 145.407 145.848C144.959 145.512 144.399 145.344 143.727 145.344C142.767 145.344 142.007 145.696 141.447 146.4C140.887 147.088 140.607 148.072 140.607 149.352C140.607 150.616 140.887 151.6 141.447 152.304C142.007 152.992 142.767 153.336 143.727 153.336C145.087 153.336 145.975 152.728 146.391 151.512H150.015C149.647 152.952 148.919 154.096 147.831 154.944C146.743 155.792 145.383 156.216 143.751 156.216C142.471 156.216 141.335 155.936 140.343 155.376C139.351 154.8 138.575 154 138.015 152.976C137.455 151.936 137.175 150.728 137.175 149.352ZM155.836 138.24V156H152.476V138.24H155.836ZM160.86 141.12C160.268 141.12 159.772 140.936 159.372 140.568C158.988 140.184 158.796 139.712 158.796 139.152C158.796 138.592 158.988 138.128 159.372 137.76C159.772 137.376 160.268 137.184 160.86 137.184C161.452 137.184 161.94 137.376 162.324 137.76C162.724 138.128 162.924 138.592 162.924 139.152C162.924 139.712 162.724 140.184 162.324 140.568C161.94 140.936 161.452 141.12 160.86 141.12ZM162.516 142.704V156H159.156V142.704H162.516ZM164.972 149.352C164.972 147.976 165.252 146.776 165.812 145.752C166.372 144.712 167.148 143.912 168.14 143.352C169.132 142.776 170.268 142.488 171.548 142.488C173.196 142.488 174.556 142.904 175.628 143.736C176.716 144.552 177.444 145.704 177.812 147.192H174.188C173.996 146.616 173.668 146.168 173.204 145.848C172.756 145.512 172.196 145.344 171.524 145.344C170.564 145.344 169.804 145.696 169.244 146.4C168.684 147.088 168.404 148.072 168.404 149.352C168.404 150.616 168.684 151.6 169.244 152.304C169.804 152.992 170.564 153.336 171.524 153.336C172.884 153.336 173.772 152.728 174.188 151.512H177.812C177.444 152.952 176.716 154.096 175.628 154.944C174.54 155.792 173.18 156.216 171.548 156.216C170.268 156.216 169.132 155.936 168.14 155.376C167.148 154.8 166.372 154 165.812 152.976C165.252 151.936 164.972 150.728 164.972 149.352ZM188.145 156L183.633 150.336V156H180.273V138.24H183.633V148.344L188.097 142.704H192.465L186.609 149.376L192.513 156H188.145ZM207.496 142.512C208.504 142.512 209.4 142.736 210.184 143.184C210.968 143.616 211.576 144.264 212.008 145.128C212.456 145.976 212.68 147 212.68 148.2V156H209.32V148.656C209.32 147.6 209.056 146.792 208.528 146.232C208 145.656 207.28 145.368 206.368 145.368C205.44 145.368 204.704 145.656 204.16 146.232C203.632 146.792 203.368 147.6 203.368 148.656V156H200.008V138.24H203.368V144.36C203.8 143.784 204.376 143.336 205.096 143.016C205.816 142.68 206.616 142.512 207.496 142.512ZM228.235 149.064C228.235 149.544 228.203 149.976 228.139 150.36H218.419C218.499 151.32 218.835 152.072 219.427 152.616C220.019 153.16 220.747 153.432 221.611 153.432C222.859 153.432 223.747 152.896 224.275 151.824H227.899C227.515 153.104 226.779 154.16 225.691 154.992C224.603 155.808 223.267 156.216 221.683 156.216C220.403 156.216 219.251 155.936 218.227 155.376C217.219 154.8 216.427 153.992 215.851 152.952C215.291 151.912 215.011 150.712 215.011 149.352C215.011 147.976 215.291 146.768 215.851 145.728C216.411 144.688 217.195 143.888 218.203 143.328C219.211 142.768 220.371 142.488 221.683 142.488C222.947 142.488 224.075 142.76 225.067 143.304C226.075 143.848 226.851 144.624 227.395 145.632C227.955 146.624 228.235 147.768 228.235 149.064ZM224.755 148.104C224.739 147.24 224.427 146.552 223.819 146.04C223.211 145.512 222.467 145.248 221.587 145.248C220.755 145.248 220.051 145.504 219.475 146.016C218.915 146.512 218.571 147.208 218.443 148.104H224.755ZM234.047 144.768C234.479 144.064 235.039 143.512 235.727 143.112C236.431 142.712 237.231 142.512 238.127 142.512V146.04H237.239C236.183 146.04 235.383 146.288 234.839 146.784C234.311 147.28 234.047 148.144 234.047 149.376V156H230.687V142.704H234.047V144.768ZM252.75 149.064C252.75 149.544 252.718 149.976 252.654 150.36H242.934C243.014 151.32 243.35 152.072 243.942 152.616C244.534 153.16 245.262 153.432 246.126 153.432C247.374 153.432 248.262 152.896 248.79 151.824H252.414C252.03 153.104 251.294 154.16 250.206 154.992C249.118 155.808 247.782 156.216 246.198 156.216C244.918 156.216 243.766 155.936 242.742 155.376C241.734 154.8 240.942 153.992 240.366 152.952C239.806 151.912 239.526 150.712 239.526 149.352C239.526 147.976 239.806 146.768 240.366 145.728C240.926 144.688 241.71 143.888 242.718 143.328C243.726 142.768 244.886 142.488 246.198 142.488C247.462 142.488 248.59 142.76 249.582 143.304C250.59 143.848 251.366 144.624 251.91 145.632C252.47 146.624 252.75 147.768 252.75 149.064ZM249.27 148.104C249.254 147.24 248.942 146.552 248.334 146.04C247.726 145.512 246.982 145.248 246.102 145.248C245.27 145.248 244.566 145.504 243.99 146.016C243.43 146.512 243.086 147.208 242.958 148.104H249.27ZM264.834 145.464V151.896C264.834 152.344 264.938 152.672 265.146 152.88C265.37 153.072 265.738 153.168 266.25 153.168H267.81V156H265.698C262.866 156 261.45 154.624 261.45 151.872V145.464H259.866V142.704H261.45V139.416H264.834V142.704H267.81V145.464H264.834ZM276.13 156.216C274.85 156.216 273.698 155.936 272.674 155.376C271.65 154.8 270.842 153.992 270.25 152.952C269.674 151.912 269.386 150.712 269.386 149.352C269.386 147.992 269.682 146.792 270.274 145.752C270.882 144.712 271.706 143.912 272.746 143.352C273.786 142.776 274.946 142.488 276.226 142.488C277.506 142.488 278.666 142.776 279.706 143.352C280.746 143.912 281.562 144.712 282.154 145.752C282.762 146.792 283.066 147.992 283.066 149.352C283.066 150.712 282.754 151.912 282.13 152.952C281.522 153.992 280.69 154.8 279.634 155.376C278.594 155.936 277.426 156.216 276.13 156.216ZM276.13 153.288C276.738 153.288 277.306 153.144 277.834 152.856C278.378 152.552 278.81 152.104 279.13 151.512C279.45 150.92 279.61 150.2 279.61 149.352C279.61 148.088 279.274 147.12 278.602 146.448C277.946 145.76 277.138 145.416 276.178 145.416C275.218 145.416 274.41 145.76 273.754 146.448C273.114 147.12 272.794 148.088 272.794 149.352C272.794 150.616 273.106 151.592 273.73 152.28C274.37 152.952 275.17 153.288 276.13 153.288ZM290.386 149.352C290.386 147.976 290.666 146.776 291.226 145.752C291.786 144.712 292.562 143.912 293.554 143.352C294.546 142.776 295.682 142.488 296.962 142.488C298.61 142.488 299.97 142.904 301.042 143.736C302.13 144.552 302.858 145.704 303.226 147.192H299.602C299.41 146.616 299.082 146.168 298.618 145.848C298.17 145.512 297.61 145.344 296.938 145.344C295.978 145.344 295.218 145.696 294.658 146.4C294.098 147.088 293.818 148.072 293.818 149.352C293.818 150.616 294.098 151.6 294.658 152.304C295.218 152.992 295.978 153.336 296.938 153.336C298.298 153.336 299.186 152.728 299.602 151.512H303.226C302.858 152.952 302.13 154.096 301.042 154.944C299.954 155.792 298.594 156.216 296.962 156.216C295.682 156.216 294.546 155.936 293.554 155.376C292.562 154.8 291.786 154 291.226 152.976C290.666 151.936 290.386 150.728 290.386 149.352ZM309.047 144.768C309.479 144.064 310.039 143.512 310.727 143.112C311.431 142.712 312.231 142.512 313.127 142.512V146.04H312.239C311.183 146.04 310.383 146.288 309.839 146.784C309.311 147.28 309.047 148.144 309.047 149.376V156H305.687V142.704H309.047V144.768ZM327.75 149.064C327.75 149.544 327.718 149.976 327.654 150.36H317.934C318.014 151.32 318.35 152.072 318.942 152.616C319.534 153.16 320.262 153.432 321.126 153.432C322.374 153.432 323.262 152.896 323.79 151.824H327.414C327.03 153.104 326.294 154.16 325.206 154.992C324.118 155.808 322.782 156.216 321.198 156.216C319.918 156.216 318.766 155.936 317.742 155.376C316.734 154.8 315.942 153.992 315.366 152.952C314.806 151.912 314.526 150.712 314.526 149.352C314.526 147.976 314.806 146.768 315.366 145.728C315.926 144.688 316.71 143.888 317.718 143.328C318.726 142.768 319.886 142.488 321.198 142.488C322.462 142.488 323.59 142.76 324.582 143.304C325.59 143.848 326.366 144.624 326.91 145.632C327.47 146.624 327.75 147.768 327.75 149.064ZM324.27 148.104C324.254 147.24 323.942 146.552 323.334 146.04C322.726 145.512 321.982 145.248 321.102 145.248C320.27 145.248 319.566 145.504 318.99 146.016C318.43 146.512 318.086 147.208 317.958 148.104H324.27ZM329.339 149.304C329.339 147.96 329.603 146.768 330.131 145.728C330.675 144.688 331.403 143.888 332.315 143.328C333.243 142.768 334.275 142.488 335.411 142.488C336.403 142.488 337.267 142.688 338.003 143.088C338.755 143.488 339.355 143.992 339.803 144.6V142.704H343.187V156H339.803V154.056C339.371 154.68 338.771 155.2 338.003 155.616C337.251 156.016 336.379 156.216 335.387 156.216C334.267 156.216 333.243 155.928 332.315 155.352C331.403 154.776 330.675 153.968 330.131 152.928C329.603 151.872 329.339 150.664 329.339 149.304ZM339.803 149.352C339.803 148.536 339.643 147.84 339.323 147.264C339.003 146.672 338.571 146.224 338.027 145.92C337.483 145.6 336.899 145.44 336.275 145.44C335.651 145.44 335.075 145.592 334.547 145.896C334.019 146.2 333.587 146.648 333.251 147.24C332.931 147.816 332.771 148.504 332.771 149.304C332.771 150.104 332.931 150.808 333.251 151.416C333.587 152.008 334.019 152.464 334.547 152.784C335.091 153.104 335.667 153.264 336.275 153.264C336.899 153.264 337.483 153.112 338.027 152.808C338.571 152.488 339.003 152.04 339.323 151.464C339.643 150.872 339.803 150.168 339.803 149.352ZM350.381 145.464V151.896C350.381 152.344 350.485 152.672 350.693 152.88C350.917 153.072 351.285 153.168 351.797 153.168H353.357V156H351.245C348.413 156 346.997 154.624 346.997 151.872V145.464H345.413V142.704H346.997V139.416H350.381V142.704H353.357V145.464H350.381ZM368.133 149.064C368.133 149.544 368.101 149.976 368.037 150.36H358.317C358.397 151.32 358.733 152.072 359.325 152.616C359.917 153.16 360.645 153.432 361.509 153.432C362.757 153.432 363.645 152.896 364.173 151.824H367.797C367.413 153.104 366.677 154.16 365.589 154.992C364.501 155.808 363.165 156.216 361.581 156.216C360.301 156.216 359.149 155.936 358.125 155.376C357.117 154.8 356.325 153.992 355.749 152.952C355.189 151.912 354.909 150.712 354.909 149.352C354.909 147.976 355.189 146.768 355.749 145.728C356.309 144.688 357.093 143.888 358.101 143.328C359.109 142.768 360.269 142.488 361.581 142.488C362.845 142.488 363.973 142.76 364.965 143.304C365.973 143.848 366.749 144.624 367.293 145.632C367.853 146.624 368.133 147.768 368.133 149.064ZM364.653 148.104C364.637 147.24 364.325 146.552 363.717 146.04C363.109 145.512 362.365 145.248 361.485 145.248C360.653 145.248 359.949 145.504 359.373 146.016C358.813 146.512 358.469 147.208 358.341 148.104H364.653ZM382.208 156.216C380.928 156.216 379.776 155.936 378.752 155.376C377.728 154.8 376.92 153.992 376.328 152.952C375.752 151.912 375.464 150.712 375.464 149.352C375.464 147.992 375.76 146.792 376.352 145.752C376.96 144.712 377.784 143.912 378.824 143.352C379.864 142.776 381.024 142.488 382.304 142.488C383.584 142.488 384.744 142.776 385.784 143.352C386.824 143.912 387.64 144.712 388.232 145.752C388.84 146.792 389.144 147.992 389.144 149.352C389.144 150.712 388.832 151.912 388.208 152.952C387.6 153.992 386.768 154.8 385.712 155.376C384.672 155.936 383.504 156.216 382.208 156.216ZM382.208 153.288C382.816 153.288 383.384 153.144 383.912 152.856C384.456 152.552 384.888 152.104 385.208 151.512C385.528 150.92 385.688 150.2 385.688 149.352C385.688 148.088 385.352 147.12 384.68 146.448C384.024 145.76 383.216 145.416 382.256 145.416C381.296 145.416 380.488 145.76 379.832 146.448C379.192 147.12 378.872 148.088 378.872 149.352C378.872 150.616 379.184 151.592 379.808 152.28C380.448 152.952 381.248 153.288 382.208 153.288ZM398.977 142.512C400.561 142.512 401.841 143.016 402.817 144.024C403.793 145.016 404.281 146.408 404.281 148.2V156H400.921V148.656C400.921 147.6 400.657 146.792 400.129 146.232C399.601 145.656 398.881 145.368 397.969 145.368C397.041 145.368 396.305 145.656 395.761 146.232C395.233 146.792 394.969 147.6 394.969 148.656V156H391.609V142.704H394.969V144.36C395.417 143.784 395.985 143.336 396.673 143.016C397.377 142.68 398.145 142.512 398.977 142.512ZM419.836 149.064C419.836 149.544 419.804 149.976 419.74 150.36H410.02C410.1 151.32 410.436 152.072 411.028 152.616C411.62 153.16 412.348 153.432 413.212 153.432C414.46 153.432 415.348 152.896 415.876 151.824H419.5C419.116 153.104 418.38 154.16 417.292 154.992C416.204 155.808 414.868 156.216 413.284 156.216C412.004 156.216 410.852 155.936 409.828 155.376C408.82 154.8 408.028 153.992 407.452 152.952C406.892 151.912 406.612 150.712 406.612 149.352C406.612 147.976 406.892 146.768 407.452 145.728C408.012 144.688 408.796 143.888 409.804 143.328C410.812 142.768 411.972 142.488 413.284 142.488C414.548 142.488 415.676 142.76 416.668 143.304C417.676 143.848 418.452 144.624 418.996 145.632C419.556 146.624 419.836 147.768 419.836 149.064ZM416.356 148.104C416.34 147.24 416.028 146.552 415.42 146.04C414.812 145.512 414.068 145.248 413.188 145.248C412.356 145.248 411.652 145.504 411.076 146.016C410.516 146.512 410.172 147.208 410.044 148.104H416.356Z" fill="#7E7E7E"/>
</svg>
