<svg width="519" height="182" viewBox="0 0 519 182" fill="none" xmlns="http://www.w3.org/2000/svg">
<path d="M259.5 0C226.434 0 199.5 26.934 199.5 60C199.5 93.066 226.434 120 259.5 120C292.566 120 319.5 93.066 319.5 60C319.5 26.934 292.566 0 259.5 0ZM259.5 12C286.081 12 307.5 33.4193 307.5 60C307.5 86.5807 286.081 108 259.5 108C232.919 108 211.5 86.5807 211.5 60C211.5 33.4193 232.919 12 259.5 12ZM253.5 30V54H229.5V66H253.5V90H265.5V66H289.5V54H265.5V30H253.5Z" fill="#7E7E7E"/>
<path d="M1.728 175V157.48H5.4L10.272 171.64C10.224 171.128 10.168 170.528 10.104 169.84C10.056 169.136 10.016 168.424 9.984 167.704C9.952 166.968 9.936 166.328 9.936 165.784V157.48H12.672V175H9L4.176 160.84C4.208 161.304 4.248 161.864 4.296 162.52C4.344 163.176 4.384 163.848 4.416 164.536C4.448 165.224 4.464 165.856 4.464 166.432V175H1.728ZM21.5906 175.216C20.4706 175.216 19.4946 175.008 18.6626 174.592C17.8466 174.16 17.2066 173.56 16.7426 172.792C16.2946 172.008 16.0706 171.088 16.0706 170.032V166.768C16.0706 165.712 16.2946 164.8 16.7426 164.032C17.2066 163.248 17.8466 162.648 18.6626 162.232C19.4946 161.8 20.4706 161.584 21.5906 161.584C22.7266 161.584 23.7026 161.8 24.5186 162.232C25.3346 162.648 25.9666 163.248 26.4146 164.032C26.8786 164.8 27.1106 165.704 27.1106 166.744V170.032C27.1106 171.088 26.8786 172.008 26.4146 172.792C25.9666 173.56 25.3346 174.16 24.5186 174.592C23.7026 175.008 22.7266 175.216 21.5906 175.216ZM21.5906 172.6C22.3906 172.6 23.0066 172.384 23.4386 171.952C23.8866 171.504 24.1106 170.864 24.1106 170.032V166.768C24.1106 165.92 23.8866 165.28 23.4386 164.848C23.0066 164.416 22.3906 164.2 21.5906 164.2C20.8066 164.2 20.1906 164.416 19.7426 164.848C19.2946 165.28 19.0706 165.92 19.0706 166.768V170.032C19.0706 170.864 19.2946 171.504 19.7426 171.952C20.1906 172.384 20.8066 172.6 21.5906 172.6ZM49.8679 175.216C48.8599 175.216 47.9799 175.056 47.2279 174.736C46.4759 174.416 45.8839 173.976 45.4519 173.416C45.0359 172.84 44.8119 172.168 44.7799 171.4H47.7799C47.8119 171.816 48.0119 172.152 48.3799 172.408C48.7639 172.664 49.2599 172.792 49.8679 172.792H50.9239C51.6599 172.792 52.2119 172.648 52.5799 172.36C52.9479 172.072 53.1319 171.68 53.1319 171.184C53.1319 170.72 52.9639 170.36 52.6279 170.104C52.3079 169.832 51.8039 169.656 51.1159 169.576L49.4839 169.336C47.9799 169.128 46.8759 168.728 46.1719 168.136C45.4679 167.544 45.1159 166.656 45.1159 165.472C45.1159 164.24 45.5319 163.288 46.3639 162.616C47.1959 161.928 48.4199 161.584 50.0359 161.584H50.9479C52.4199 161.584 53.5959 161.912 54.4759 162.568C55.3559 163.224 55.8279 164.104 55.8919 165.208H52.8919C52.8439 164.856 52.6439 164.568 52.2919 164.344C51.9559 164.12 51.5079 164.008 50.9479 164.008H50.0359C49.3479 164.008 48.8439 164.136 48.5239 164.392C48.2199 164.632 48.0679 164.992 48.0679 165.472C48.0679 165.92 48.2039 166.256 48.4759 166.48C48.7479 166.688 49.1879 166.84 49.7959 166.936L51.4999 167.176C53.0679 167.4 54.2199 167.824 54.9559 168.448C55.7079 169.056 56.0839 169.96 56.0839 171.16C56.0839 172.44 55.6439 173.44 54.7639 174.16C53.8999 174.864 52.6199 175.216 50.9239 175.216H49.8679ZM66.2025 175C64.9385 175 63.9465 174.648 63.2265 173.944C62.5225 173.24 62.1705 172.272 62.1705 171.04V164.512H58.5945V161.8H62.1705V158.08H65.1945V161.8H70.2585V164.512H65.1945V171.04C65.1945 171.872 65.6025 172.288 66.4185 172.288H70.0185V175H66.2025ZM77.6891 175.24C76.3291 175.24 75.2571 174.88 74.4731 174.16C73.6891 173.44 73.2971 172.472 73.2971 171.256C73.2971 169.96 73.7291 168.96 74.5931 168.256C75.4571 167.552 76.6811 167.2 78.2651 167.2H81.5531V166.072C81.5531 165.432 81.3451 164.936 80.9291 164.584C80.5131 164.216 79.9451 164.032 79.2251 164.032C78.5691 164.032 78.0251 164.176 77.5931 164.464C77.1611 164.752 76.9051 165.144 76.8251 165.64H73.8971C74.0411 164.392 74.6011 163.4 75.5771 162.664C76.5531 161.928 77.8011 161.56 79.3211 161.56C80.9371 161.56 82.2091 161.968 83.1371 162.784C84.0811 163.584 84.5531 164.672 84.5531 166.048V175H81.6491V172.696H81.1691L81.6491 172.048C81.6491 173.024 81.2891 173.8 80.5691 174.376C79.8491 174.952 78.8891 175.24 77.6891 175.24ZM78.6731 172.984C79.5211 172.984 80.2091 172.768 80.7371 172.336C81.2811 171.904 81.5531 171.344 81.5531 170.656V169.048H78.3131C77.7051 169.048 77.2171 169.224 76.8491 169.576C76.4811 169.928 76.2971 170.392 76.2971 170.968C76.2971 171.592 76.5051 172.088 76.9211 172.456C77.3531 172.808 77.9371 172.984 78.6731 172.984ZM93.6158 175.24C92.4958 175.24 91.5118 175.032 90.6638 174.616C89.8318 174.184 89.1838 173.584 88.7198 172.816C88.2558 172.032 88.0238 171.112 88.0238 170.056V166.744C88.0238 165.672 88.2558 164.752 88.7198 163.984C89.1838 163.216 89.8318 162.624 90.6638 162.208C91.5118 161.776 92.4958 161.56 93.6158 161.56C95.2798 161.56 96.6078 161.992 97.5998 162.856C98.5918 163.704 99.1118 164.864 99.1598 166.336H96.1598C96.1118 165.648 95.8638 165.12 95.4158 164.752C94.9838 164.368 94.3838 164.176 93.6158 164.176C92.8158 164.176 92.1838 164.4 91.7198 164.848C91.2558 165.28 91.0238 165.904 91.0238 166.72V170.056C91.0238 170.872 91.2558 171.504 91.7198 171.952C92.1838 172.4 92.8158 172.624 93.6158 172.624C94.3838 172.624 94.9838 172.44 95.4158 172.072C95.8638 171.688 96.1118 171.152 96.1598 170.464H99.1598C99.1118 171.936 98.5918 173.104 97.5998 173.968C96.6078 174.816 95.2798 175.24 93.6158 175.24ZM102.654 175V157.48H105.654V166.984H107.742L110.958 161.8H114.318L110.334 168.184L114.39 175H110.958L107.742 169.528H105.654V175H102.654ZM121.821 175.216C120.813 175.216 119.933 175.056 119.181 174.736C118.429 174.416 117.837 173.976 117.405 173.416C116.989 172.84 116.765 172.168 116.733 171.4H119.733C119.765 171.816 119.965 172.152 120.333 172.408C120.717 172.664 121.213 172.792 121.821 172.792H122.877C123.613 172.792 124.165 172.648 124.533 172.36C124.901 172.072 125.085 171.68 125.085 171.184C125.085 170.72 124.917 170.36 124.581 170.104C124.261 169.832 123.757 169.656 123.069 169.576L121.437 169.336C119.933 169.128 118.829 168.728 118.125 168.136C117.421 167.544 117.069 166.656 117.069 165.472C117.069 164.24 117.485 163.288 118.317 162.616C119.149 161.928 120.373 161.584 121.989 161.584H122.901C124.373 161.584 125.549 161.912 126.429 162.568C127.309 163.224 127.781 164.104 127.845 165.208H124.845C124.797 164.856 124.597 164.568 124.245 164.344C123.909 164.12 123.461 164.008 122.901 164.008H121.989C121.301 164.008 120.797 164.136 120.477 164.392C120.173 164.632 120.021 164.992 120.021 165.472C120.021 165.92 120.157 166.256 120.429 166.48C120.701 166.688 121.141 166.84 121.749 166.936L123.453 167.176C125.021 167.4 126.173 167.824 126.909 168.448C127.661 169.056 128.037 169.96 128.037 171.16C128.037 172.44 127.597 173.44 126.717 174.16C125.853 174.864 124.573 175.216 122.877 175.216H121.821ZM147.506 178.84L149.426 171.376H153.266L150.146 178.84H147.506ZM179.96 175.24C178.84 175.24 177.856 175.032 177.008 174.616C176.176 174.184 175.528 173.584 175.064 172.816C174.6 172.032 174.368 171.112 174.368 170.056V166.744C174.368 165.672 174.6 164.752 175.064 163.984C175.528 163.216 176.176 162.624 177.008 162.208C177.856 161.776 178.84 161.56 179.96 161.56C181.624 161.56 182.952 161.992 183.944 162.856C184.936 163.704 185.456 164.864 185.504 166.336H182.504C182.456 165.648 182.208 165.12 181.76 164.752C181.328 164.368 180.728 164.176 179.96 164.176C179.16 164.176 178.528 164.4 178.064 164.848C177.6 165.28 177.368 165.904 177.368 166.72V170.056C177.368 170.872 177.6 171.504 178.064 171.952C178.528 172.4 179.16 172.624 179.96 172.624C180.728 172.624 181.328 172.44 181.76 172.072C182.208 171.688 182.456 171.152 182.504 170.464H185.504C185.456 171.936 184.936 173.104 183.944 173.968C182.952 174.816 181.624 175.24 179.96 175.24ZM196.294 175C195.43 175 194.67 174.824 194.014 174.472C193.374 174.12 192.87 173.624 192.502 172.984C192.134 172.328 191.95 171.576 191.95 170.728V160.192H187.726V157.48H194.95V170.728C194.95 171.208 195.086 171.592 195.358 171.88C195.646 172.152 196.03 172.288 196.51 172.288H200.494V175H196.294ZM203.293 175V172.264H207.901V164.512H203.893V161.8H210.781V172.264H214.861V175H203.293ZM209.101 159.592C208.493 159.592 208.013 159.44 207.661 159.136C207.309 158.816 207.133 158.392 207.133 157.864C207.133 157.336 207.309 156.92 207.661 156.616C208.013 156.296 208.493 156.136 209.101 156.136C209.709 156.136 210.189 156.296 210.541 156.616C210.893 156.92 211.069 157.336 211.069 157.864C211.069 158.392 210.893 158.816 210.541 159.136C210.189 159.44 209.709 159.592 209.101 159.592ZM223.131 175.24C222.011 175.24 221.027 175.032 220.179 174.616C219.347 174.184 218.699 173.584 218.235 172.816C217.771 172.032 217.539 171.112 217.539 170.056V166.744C217.539 165.672 217.771 164.752 218.235 163.984C218.699 163.216 219.347 162.624 220.179 162.208C221.027 161.776 222.011 161.56 223.131 161.56C224.795 161.56 226.123 161.992 227.115 162.856C228.107 163.704 228.627 164.864 228.675 166.336H225.675C225.627 165.648 225.379 165.12 224.931 164.752C224.499 164.368 223.899 164.176 223.131 164.176C222.331 164.176 221.699 164.4 221.235 164.848C220.771 165.28 220.539 165.904 220.539 166.72V170.056C220.539 170.872 220.771 171.504 221.235 171.952C221.699 172.4 222.331 172.624 223.131 172.624C223.899 172.624 224.499 172.44 224.931 172.072C225.379 171.688 225.627 171.152 225.675 170.464H228.675C228.627 171.936 228.107 173.104 227.115 173.968C226.123 174.816 224.795 175.24 223.131 175.24ZM232.17 175V157.48H235.17V166.984H237.258L240.474 161.8H243.834L239.85 168.184L243.906 175H240.474L237.258 169.528H235.17V175H232.17ZM260.879 175V157.48H263.879V161.8L263.807 164.32H264.623L263.807 165.016C263.807 163.928 264.119 163.08 264.743 162.472C265.383 161.864 266.255 161.56 267.359 161.56C268.655 161.56 269.687 161.992 270.455 162.856C271.239 163.72 271.631 164.88 271.631 166.336V175H268.631V166.648C268.631 165.848 268.423 165.232 268.007 164.8C267.591 164.368 267.007 164.152 266.255 164.152C265.519 164.152 264.935 164.376 264.503 164.824C264.087 165.272 263.879 165.912 263.879 166.744V175H260.879ZM280.646 175.24C279.526 175.24 278.55 175.024 277.718 174.592C276.886 174.16 276.238 173.56 275.774 172.792C275.326 172.008 275.102 171.096 275.102 170.056V166.744C275.102 165.704 275.326 164.8 275.774 164.032C276.238 163.248 276.886 162.64 277.718 162.208C278.55 161.776 279.526 161.56 280.646 161.56C281.75 161.56 282.71 161.776 283.526 162.208C284.358 162.64 284.998 163.248 285.446 164.032C285.91 164.8 286.142 165.704 286.142 166.744V169.12H278.006V170.056C278.006 170.984 278.23 171.688 278.678 172.168C279.126 172.632 279.79 172.864 280.67 172.864C281.342 172.864 281.886 172.752 282.302 172.528C282.718 172.288 282.982 171.944 283.094 171.496H286.046C285.822 172.632 285.214 173.544 284.222 174.232C283.246 174.904 282.054 175.24 280.646 175.24ZM283.238 167.44V166.72C283.238 165.808 283.022 165.112 282.59 164.632C282.158 164.136 281.51 163.888 280.646 163.888C279.782 163.888 279.126 164.136 278.678 164.632C278.23 165.128 278.006 165.832 278.006 166.744V167.248L283.454 167.2L283.238 167.44ZM290.069 175V161.8H292.901V164.32H293.645L292.757 165.856C292.757 164.432 293.077 163.36 293.717 162.64C294.357 161.92 295.301 161.56 296.549 161.56C297.973 161.56 299.093 162 299.909 162.88C300.725 163.76 301.133 164.976 301.133 166.528V167.488H297.989V166.744C297.989 165.896 297.765 165.24 297.317 164.776C296.885 164.312 296.285 164.08 295.517 164.08C294.733 164.08 294.125 164.312 293.693 164.776C293.277 165.24 293.069 165.896 293.069 166.744V175H290.069ZM309.427 175.24C308.307 175.24 307.331 175.024 306.499 174.592C305.667 174.16 305.019 173.56 304.555 172.792C304.107 172.008 303.883 171.096 303.883 170.056V166.744C303.883 165.704 304.107 164.8 304.555 164.032C305.019 163.248 305.667 162.64 306.499 162.208C307.331 161.776 308.307 161.56 309.427 161.56C310.531 161.56 311.491 161.776 312.307 162.208C313.139 162.64 313.779 163.248 314.227 164.032C314.691 164.8 314.923 165.704 314.923 166.744V169.12H306.787V170.056C306.787 170.984 307.011 171.688 307.459 172.168C307.907 172.632 308.571 172.864 309.451 172.864C310.123 172.864 310.667 172.752 311.083 172.528C311.499 172.288 311.763 171.944 311.875 171.496H314.827C314.603 172.632 313.995 173.544 313.003 174.232C312.027 174.904 310.835 175.24 309.427 175.24ZM312.019 167.44V166.72C312.019 165.808 311.803 165.112 311.371 164.632C310.939 164.136 310.291 163.888 309.427 163.888C308.563 163.888 307.907 164.136 307.459 164.632C307.011 165.128 306.787 165.832 306.787 166.744V167.248L312.235 167.2L312.019 167.44ZM339.624 175C338.36 175 337.368 174.648 336.648 173.944C335.944 173.24 335.592 172.272 335.592 171.04V164.512H332.016V161.8H335.592V158.08H338.616V161.8H343.68V164.512H338.616V171.04C338.616 171.872 339.024 172.288 339.84 172.288H343.44V175H339.624ZM352.575 175.216C351.455 175.216 350.479 175.008 349.647 174.592C348.831 174.16 348.191 173.56 347.727 172.792C347.279 172.008 347.055 171.088 347.055 170.032V166.768C347.055 165.712 347.279 164.8 347.727 164.032C348.191 163.248 348.831 162.648 349.647 162.232C350.479 161.8 351.455 161.584 352.575 161.584C353.711 161.584 354.687 161.8 355.503 162.232C356.319 162.648 356.951 163.248 357.399 164.032C357.863 164.8 358.095 165.704 358.095 166.744V170.032C358.095 171.088 357.863 172.008 357.399 172.792C356.951 173.56 356.319 174.16 355.503 174.592C354.687 175.008 353.711 175.216 352.575 175.216ZM352.575 172.6C353.375 172.6 353.991 172.384 354.423 171.952C354.871 171.504 355.095 170.864 355.095 170.032V166.768C355.095 165.92 354.871 165.28 354.423 164.848C353.991 164.416 353.375 164.2 352.575 164.2C351.791 164.2 351.175 164.416 350.727 164.848C350.279 165.28 350.055 165.92 350.055 166.768V170.032C350.055 170.864 350.279 171.504 350.727 171.952C351.175 172.384 351.791 172.6 352.575 172.6ZM381.428 175.24C380.308 175.24 379.324 175.032 378.476 174.616C377.644 174.184 376.996 173.584 376.532 172.816C376.068 172.032 375.836 171.112 375.836 170.056V166.744C375.836 165.672 376.068 164.752 376.532 163.984C376.996 163.216 377.644 162.624 378.476 162.208C379.324 161.776 380.308 161.56 381.428 161.56C383.092 161.56 384.42 161.992 385.412 162.856C386.404 163.704 386.924 164.864 386.972 166.336H383.972C383.924 165.648 383.676 165.12 383.228 164.752C382.796 164.368 382.196 164.176 381.428 164.176C380.628 164.176 379.996 164.4 379.532 164.848C379.068 165.28 378.836 165.904 378.836 166.72V170.056C378.836 170.872 379.068 171.504 379.532 171.952C379.996 172.4 380.628 172.624 381.428 172.624C382.196 172.624 382.796 172.44 383.228 172.072C383.676 171.688 383.924 171.152 383.972 170.464H386.972C386.924 171.936 386.404 173.104 385.412 173.968C384.42 174.816 383.092 175.24 381.428 175.24ZM390.803 175V161.8H393.635V164.32H394.379L393.491 165.856C393.491 164.432 393.811 163.36 394.451 162.64C395.091 161.92 396.035 161.56 397.283 161.56C398.707 161.56 399.827 162 400.643 162.88C401.459 163.76 401.867 164.976 401.867 166.528V167.488H398.723V166.744C398.723 165.896 398.499 165.24 398.051 164.776C397.619 164.312 397.019 164.08 396.251 164.08C395.467 164.08 394.859 164.312 394.427 164.776C394.011 165.24 393.803 165.896 393.803 166.744V175H390.803ZM410.162 175.24C409.042 175.24 408.066 175.024 407.234 174.592C406.402 174.16 405.754 173.56 405.29 172.792C404.842 172.008 404.618 171.096 404.618 170.056V166.744C404.618 165.704 404.842 164.8 405.29 164.032C405.754 163.248 406.402 162.64 407.234 162.208C408.066 161.776 409.042 161.56 410.162 161.56C411.266 161.56 412.226 161.776 413.042 162.208C413.874 162.64 414.514 163.248 414.962 164.032C415.426 164.8 415.658 165.704 415.658 166.744V169.12H407.522V170.056C407.522 170.984 407.746 171.688 408.194 172.168C408.642 172.632 409.306 172.864 410.186 172.864C410.858 172.864 411.402 172.752 411.818 172.528C412.234 172.288 412.498 171.944 412.61 171.496H415.562C415.338 172.632 414.73 173.544 413.738 174.232C412.762 174.904 411.57 175.24 410.162 175.24ZM412.754 167.44V166.72C412.754 165.808 412.538 165.112 412.106 164.632C411.674 164.136 411.026 163.888 410.162 163.888C409.298 163.888 408.642 164.136 408.194 164.632C407.746 165.128 407.522 165.832 407.522 166.744V167.248L412.97 167.2L412.754 167.44ZM423.064 175.24C421.704 175.24 420.632 174.88 419.848 174.16C419.064 173.44 418.672 172.472 418.672 171.256C418.672 169.96 419.104 168.96 419.968 168.256C420.832 167.552 422.056 167.2 423.64 167.2H426.928V166.072C426.928 165.432 426.72 164.936 426.304 164.584C425.888 164.216 425.32 164.032 424.6 164.032C423.944 164.032 423.4 164.176 422.968 164.464C422.536 164.752 422.28 165.144 422.2 165.64H419.272C419.416 164.392 419.976 163.4 420.952 162.664C421.928 161.928 423.176 161.56 424.696 161.56C426.312 161.56 427.584 161.968 428.512 162.784C429.456 163.584 429.928 164.672 429.928 166.048V175H427.024V172.696H426.544L427.024 172.048C427.024 173.024 426.664 173.8 425.944 174.376C425.224 174.952 424.264 175.24 423.064 175.24ZM424.048 172.984C424.896 172.984 425.584 172.768 426.112 172.336C426.656 171.904 426.928 171.344 426.928 170.656V169.048H423.688C423.08 169.048 422.592 169.224 422.224 169.576C421.856 169.928 421.672 170.392 421.672 170.968C421.672 171.592 421.88 172.088 422.296 172.456C422.728 172.808 423.312 172.984 424.048 172.984ZM440.359 175C439.095 175 438.103 174.648 437.383 173.944C436.679 173.24 436.327 172.272 436.327 171.04V164.512H432.751V161.8H436.327V158.08H439.351V161.8H444.415V164.512H439.351V171.04C439.351 171.872 439.759 172.288 440.575 172.288H444.175V175H440.359ZM453.333 175.24C452.213 175.24 451.237 175.024 450.405 174.592C449.573 174.16 448.925 173.56 448.461 172.792C448.013 172.008 447.789 171.096 447.789 170.056V166.744C447.789 165.704 448.013 164.8 448.461 164.032C448.925 163.248 449.573 162.64 450.405 162.208C451.237 161.776 452.213 161.56 453.333 161.56C454.437 161.56 455.397 161.776 456.213 162.208C457.045 162.64 457.685 163.248 458.133 164.032C458.597 164.8 458.829 165.704 458.829 166.744V169.12H450.693V170.056C450.693 170.984 450.917 171.688 451.365 172.168C451.813 172.632 452.477 172.864 453.357 172.864C454.029 172.864 454.573 172.752 454.989 172.528C455.405 172.288 455.669 171.944 455.781 171.496H458.733C458.509 172.632 457.901 173.544 456.909 174.232C455.933 174.904 454.741 175.24 453.333 175.24ZM455.925 167.44V166.72C455.925 165.808 455.709 165.112 455.277 164.632C454.845 164.136 454.197 163.888 453.333 163.888C452.469 163.888 451.813 164.136 451.365 164.632C450.917 165.128 450.693 165.832 450.693 166.744V167.248L456.141 167.2L455.925 167.44ZM482.091 175.216C480.971 175.216 479.995 175.008 479.163 174.592C478.347 174.16 477.707 173.56 477.243 172.792C476.795 172.008 476.571 171.088 476.571 170.032V166.768C476.571 165.712 476.795 164.8 477.243 164.032C477.707 163.248 478.347 162.648 479.163 162.232C479.995 161.8 480.971 161.584 482.091 161.584C483.227 161.584 484.203 161.8 485.019 162.232C485.835 162.648 486.467 163.248 486.915 164.032C487.379 164.8 487.611 165.704 487.611 166.744V170.032C487.611 171.088 487.379 172.008 486.915 172.792C486.467 173.56 485.835 174.16 485.019 174.592C484.203 175.008 483.227 175.216 482.091 175.216ZM482.091 172.6C482.891 172.6 483.507 172.384 483.939 171.952C484.387 171.504 484.611 170.864 484.611 170.032V166.768C484.611 165.92 484.387 165.28 483.939 164.848C483.507 164.416 482.891 164.2 482.091 164.2C481.307 164.2 480.691 164.416 480.243 164.848C479.795 165.28 479.571 165.92 479.571 166.768V170.032C479.571 170.864 479.795 171.504 480.243 171.952C480.691 172.384 481.307 172.6 482.091 172.6ZM491.129 175V161.8H494.057V164.32H494.873L494.057 165.016C494.057 163.928 494.369 163.08 494.993 162.472C495.633 161.864 496.505 161.56 497.609 161.56C498.905 161.56 499.937 161.992 500.705 162.856C501.489 163.72 501.881 164.88 501.881 166.336V175H498.881V166.648C498.881 165.848 498.673 165.232 498.257 164.8C497.841 164.368 497.257 164.152 496.505 164.152C495.769 164.152 495.185 164.376 494.753 164.824C494.337 165.272 494.129 165.912 494.129 166.744V175H491.129ZM510.896 175.24C509.776 175.24 508.8 175.024 507.968 174.592C507.136 174.16 506.488 173.56 506.024 172.792C505.576 172.008 505.352 171.096 505.352 170.056V166.744C505.352 165.704 505.576 164.8 506.024 164.032C506.488 163.248 507.136 162.64 507.968 162.208C508.8 161.776 509.776 161.56 510.896 161.56C512 161.56 512.96 161.776 513.776 162.208C514.608 162.64 515.248 163.248 515.696 164.032C516.16 164.8 516.392 165.704 516.392 166.744V169.12H508.256V170.056C508.256 170.984 508.48 171.688 508.928 172.168C509.376 172.632 510.04 172.864 510.92 172.864C511.592 172.864 512.136 172.752 512.552 172.528C512.968 172.288 513.232 171.944 513.344 171.496H516.296C516.072 172.632 515.464 173.544 514.472 174.232C513.496 174.904 512.304 175.24 510.896 175.24ZM513.488 167.44V166.72C513.488 165.808 513.272 165.112 512.84 164.632C512.408 164.136 511.76 163.888 510.896 163.888C510.032 163.888 509.376 164.136 508.928 164.632C508.48 165.128 508.256 165.832 508.256 166.744V167.248L513.704 167.2L513.488 167.44Z" fill="#7E7E7E"/>
</svg>
